<mxfile host="65bd71144e">
    <diagram id="cAg1oVtVmHV-jtVLl5oZ" name="Page-1">
        <mxGraphModel dx="1126" dy="559" grid="1" gridSize="10" guides="1" tooltips="1" connect="1" arrows="1" fold="1" page="1" pageScale="1" pageWidth="1169" pageHeight="1654" math="0" shadow="0">
            <root>
                <mxCell id="0"/>
                <mxCell id="1" parent="0"/>
                <mxCell id="58" value="" style="rounded=0;whiteSpace=wrap;html=1;fontColor=#E5CCFF;strokeColor=#FFFFFF;dashed=1;" parent="1" vertex="1">
                    <mxGeometry x="310" y="10" width="390" height="440" as="geometry"/>
                </mxCell>
                <mxCell id="6" value="" style="rounded=0;whiteSpace=wrap;html=1;" parent="1" vertex="1">
                    <mxGeometry x="40" y="20" width="210" height="490" as="geometry"/>
                </mxCell>
                <mxCell id="3" value="getters" style="text;html=1;resizable=0;autosize=1;align=center;verticalAlign=middle;points=[];fillColor=none;strokeColor=none;rounded=0;" parent="1" vertex="1">
                    <mxGeometry x="70" y="215" width="50" height="20" as="geometry"/>
                </mxCell>
                <mxCell id="4" value="state" style="text;html=1;resizable=0;autosize=1;align=center;verticalAlign=middle;points=[];fillColor=none;strokeColor=none;rounded=0;" parent="1" vertex="1">
                    <mxGeometry x="50" y="60" width="40" height="20" as="geometry"/>
                </mxCell>
                <mxCell id="5" value="mutations" style="text;html=1;resizable=0;autosize=1;align=center;verticalAlign=middle;points=[];fillColor=none;strokeColor=none;rounded=0;" parent="1" vertex="1">
                    <mxGeometry x="50" y="295" width="70" height="20" as="geometry"/>
                </mxCell>
                <mxCell id="9" value="" style="rounded=0;whiteSpace=wrap;html=1;" parent="1" vertex="1">
                    <mxGeometry x="330" y="200" width="340" height="150" as="geometry"/>
                </mxCell>
                <mxCell id="10" value="&lt;font color=&quot;#00cc66&quot;&gt;sections.vue&lt;/font&gt;" style="text;html=1;resizable=0;autosize=1;align=center;verticalAlign=middle;points=[];fillColor=none;strokeColor=none;rounded=0;" parent="1" vertex="1">
                    <mxGeometry x="400" y="200" width="80" height="20" as="geometry"/>
                </mxCell>
                <mxCell id="11" value="store/index.js" style="text;html=1;resizable=0;autosize=1;align=center;verticalAlign=middle;points=[];fillColor=none;strokeColor=none;rounded=0;fontColor=#00CC66;" parent="1" vertex="1">
                    <mxGeometry x="90" y="20" width="90" height="20" as="geometry"/>
                </mxCell>
                <mxCell id="16" style="edgeStyle=none;html=1;fontColor=#FFFF00;strokeColor=#FFFF00;entryX=0;entryY=1.15;entryDx=0;entryDy=0;entryPerimeter=0;exitX=1.013;exitY=0.2;exitDx=0;exitDy=0;exitPerimeter=0;" parent="1" source="34" target="60" edge="1">
                    <mxGeometry relative="1" as="geometry">
                        <mxPoint x="145" y="98.80851063829789" as="sourcePoint"/>
                    </mxGeometry>
                </mxCell>
                <mxCell id="26" style="edgeStyle=none;html=1;fontColor=#FFFF66;strokeColor=#FFFF00;" parent="1" source="34" target="25" edge="1">
                    <mxGeometry relative="1" as="geometry"/>
                </mxCell>
                <mxCell id="13" value="" style="rounded=0;whiteSpace=wrap;html=1;fontColor=#FFFF00;strokeColor=#FFFFFF;" parent="1" vertex="1">
                    <mxGeometry x="340" y="50" width="320" height="100" as="geometry"/>
                </mxCell>
                <mxCell id="14" value="&lt;font color=&quot;#00cc66&quot;&gt;TheHeader.vue&lt;/font&gt;" style="text;html=1;resizable=0;autosize=1;align=center;verticalAlign=middle;points=[];fillColor=none;strokeColor=none;rounded=0;" parent="1" vertex="1">
                    <mxGeometry x="385" y="50" width="100" height="20" as="geometry"/>
                </mxCell>
                <mxCell id="20" style="edgeStyle=none;html=1;entryX=0.385;entryY=0.05;entryDx=0;entryDy=0;entryPerimeter=0;fontColor=#FFFF00;strokeColor=#FFFF00;" parent="1" source="17" target="10" edge="1">
                    <mxGeometry relative="1" as="geometry"/>
                </mxCell>
                <mxCell id="17" value="&amp;lt;NuxtLink to=&quot;/section&quot;&amp;gt; (v-for section in sections)" style="text;html=1;resizable=0;autosize=1;align=center;verticalAlign=middle;points=[];fillColor=none;strokeColor=none;rounded=0;fontColor=#FFFF00;" parent="1" vertex="1">
                    <mxGeometry x="355" y="120" width="280" height="20" as="geometry"/>
                </mxCell>
                <mxCell id="24" style="edgeStyle=none;html=1;fontColor=#66B2FF;strokeColor=#FFFF00;entryX=1;entryY=0.5;entryDx=0;entryDy=0;entryPerimeter=0;" parent="1" source="21" target="25" edge="1">
                    <mxGeometry relative="1" as="geometry"/>
                </mxCell>
                <mxCell id="21" value="products()" style="text;html=1;resizable=0;autosize=1;align=center;verticalAlign=middle;points=[];fillColor=none;strokeColor=none;rounded=0;fontColor=#FFFF00;" parent="1" vertex="1">
                    <mxGeometry x="335" y="290" width="70" height="20" as="geometry"/>
                </mxCell>
                <mxCell id="22" value="&lt;font color=&quot;#ffffff&quot;&gt;computed&lt;/font&gt;" style="text;html=1;resizable=0;autosize=1;align=center;verticalAlign=middle;points=[];fillColor=none;strokeColor=none;rounded=0;fontColor=#FFFF00;" parent="1" vertex="1">
                    <mxGeometry x="330" y="275" width="70" height="20" as="geometry"/>
                </mxCell>
                <mxCell id="23" value="&lt;font color=&quot;#66b2ff&quot;&gt;this.$store.getters.getSectionProducts(section)&lt;/font&gt;" style="text;html=1;resizable=0;autosize=1;align=center;verticalAlign=middle;points=[];fillColor=none;strokeColor=none;rounded=0;fontColor=#FFFFFF;" parent="1" vertex="1">
                    <mxGeometry x="400" y="290" width="260" height="20" as="geometry"/>
                </mxCell>
                <mxCell id="27" style="edgeStyle=none;html=1;entryX=-0.062;entryY=0.6;entryDx=0;entryDy=0;entryPerimeter=0;fontColor=#FFFF66;strokeColor=#66B2FF;" parent="1" source="25" target="21" edge="1">
                    <mxGeometry relative="1" as="geometry"/>
                </mxCell>
                <mxCell id="25" value="&lt;font color=&quot;#ffff66&quot;&gt;getSectionProducts(section)&lt;/font&gt;" style="text;html=1;resizable=0;autosize=1;align=center;verticalAlign=middle;points=[];fillColor=none;strokeColor=none;rounded=0;fontColor=#66B2FF;" parent="1" vertex="1">
                    <mxGeometry x="65" y="235" width="170" height="20" as="geometry"/>
                </mxCell>
                <mxCell id="32" style="edgeStyle=none;html=1;fontColor=#00CC66;strokeColor=#FFFFFF;endArrow=oval;endFill=1;" parent="1" source="28" target="33" edge="1">
                    <mxGeometry relative="1" as="geometry"/>
                </mxCell>
                <mxCell id="28" value="&lt;font color=&quot;#ffffff&quot;&gt;v-for product in products &amp;lt;ProductCard&amp;gt; :product&lt;/font&gt;" style="text;html=1;resizable=0;autosize=1;align=center;verticalAlign=middle;points=[];fillColor=none;strokeColor=none;rounded=0;fontColor=#FFFF66;" parent="1" vertex="1">
                    <mxGeometry x="345" y="220" width="280" height="20" as="geometry"/>
                </mxCell>
                <mxCell id="29" value="" style="rounded=0;whiteSpace=wrap;html=1;fontColor=#FFFFFF;strokeColor=#FFFFFF;" parent="1" vertex="1">
                    <mxGeometry x="710" y="210" width="290" height="150" as="geometry"/>
                </mxCell>
                <mxCell id="31" value="" style="edgeStyle=none;html=1;fontColor=#FFFFFF;strokeColor=#66B2FF;" parent="1" source="30" target="29" edge="1">
                    <mxGeometry relative="1" as="geometry"/>
                </mxCell>
                <mxCell id="30" value="&lt;font color=&quot;#00cc66&quot;&gt;ProductCard.vue&lt;/font&gt;" style="text;html=1;resizable=0;autosize=1;align=center;verticalAlign=middle;points=[];fillColor=none;strokeColor=none;rounded=0;fontColor=#FFFFFF;" parent="1" vertex="1">
                    <mxGeometry x="750" y="210" width="110" height="20" as="geometry"/>
                </mxCell>
                <mxCell id="33" value="&lt;font color=&quot;#ffb366&quot;&gt;props&lt;/font&gt;" style="text;html=1;resizable=0;autosize=1;align=center;verticalAlign=middle;points=[];fillColor=none;strokeColor=none;rounded=0;fontColor=#00CC66;" parent="1" vertex="1">
                    <mxGeometry x="710" y="280" width="50" height="20" as="geometry"/>
                </mxCell>
                <mxCell id="34" value="&lt;font color=&quot;#ffff00&quot;&gt;products: [ ]&lt;/font&gt;" style="text;html=1;resizable=0;autosize=1;align=center;verticalAlign=middle;points=[];fillColor=none;strokeColor=none;rounded=0;fontColor=#FFB366;" parent="1" vertex="1">
                    <mxGeometry x="90" y="160" width="80" height="20" as="geometry"/>
                </mxCell>
                <mxCell id="37" value="&lt;font color=&quot;#ffffff&quot;&gt;data&lt;/font&gt;" style="text;html=1;resizable=0;autosize=1;align=center;verticalAlign=middle;points=[];fillColor=none;strokeColor=none;rounded=0;fontColor=#FFFF00;" parent="1" vertex="1">
                    <mxGeometry x="335" y="240" width="40" height="20" as="geometry"/>
                </mxCell>
                <mxCell id="40" style="edgeStyle=none;html=1;entryX=0.579;entryY=0;entryDx=0;entryDy=0;entryPerimeter=0;fontColor=#FFFF00;endArrow=classic;endFill=1;strokeColor=#36393d;fillColor=#ffff88;" parent="1" source="38" target="23" edge="1">
                    <mxGeometry relative="1" as="geometry"/>
                </mxCell>
                <mxCell id="41" style="edgeStyle=none;html=1;fontColor=#FFFF00;endArrow=classic;endFill=1;strokeColor=#FFFFFF;" parent="1" source="38" target="23" edge="1">
                    <mxGeometry relative="1" as="geometry"/>
                </mxCell>
                <mxCell id="38" value="&lt;font color=&quot;#ffff00&quot;&gt;section&lt;/font&gt;" style="text;html=1;resizable=0;autosize=1;align=center;verticalAlign=middle;points=[];fillColor=none;strokeColor=none;rounded=0;fontColor=#FFFFFF;" parent="1" vertex="1">
                    <mxGeometry x="340" y="255" width="50" height="20" as="geometry"/>
                </mxCell>
                <mxCell id="39" value="&lt;font color=&quot;#66b2ff&quot;&gt;this.$route.params.section&lt;/font&gt;" style="text;html=1;resizable=0;autosize=1;align=center;verticalAlign=middle;points=[];fillColor=none;strokeColor=none;rounded=0;fontColor=#FFFFFF;" parent="1" vertex="1">
                    <mxGeometry x="380" y="255" width="160" height="20" as="geometry"/>
                </mxCell>
                <mxCell id="43" style="edgeStyle=none;html=1;fontColor=#FFFF00;endArrow=classic;endFill=1;strokeColor=#FFFFFF;entryX=0.468;entryY=1.05;entryDx=0;entryDy=0;entryPerimeter=0;" parent="1" source="42" target="44" edge="1">
                    <mxGeometry relative="1" as="geometry"/>
                </mxCell>
                <mxCell id="65" style="edgeStyle=none;html=1;fontColor=#FFFF00;endArrow=block;endFill=0;strokeColor=#FFFFFF;startArrow=none;" parent="1" source="8" target="64" edge="1">
                    <mxGeometry relative="1" as="geometry"/>
                </mxCell>
                <mxCell id="42" value="fetchProducts()" style="text;html=1;resizable=0;autosize=1;align=center;verticalAlign=middle;points=[];fillColor=none;strokeColor=none;rounded=0;fontColor=#FFFF00;" parent="1" vertex="1">
                    <mxGeometry x="50" y="410" width="100" height="20" as="geometry"/>
                </mxCell>
                <mxCell id="45" style="edgeStyle=none;html=1;entryX=0.338;entryY=1.1;entryDx=0;entryDy=0;entryPerimeter=0;fontColor=#FFFF00;endArrow=classic;endFill=1;strokeColor=#FFFFFF;" parent="1" source="44" target="34" edge="1">
                    <mxGeometry relative="1" as="geometry"/>
                </mxCell>
                <mxCell id="44" value="saveProducts (state, products)" style="text;html=1;resizable=0;autosize=1;align=center;verticalAlign=middle;points=[];fillColor=none;strokeColor=none;rounded=0;fontColor=#FFFF00;" parent="1" vertex="1">
                    <mxGeometry x="45" y="315" width="180" height="20" as="geometry"/>
                </mxCell>
                <mxCell id="47" value="product: { }" style="text;html=1;resizable=0;autosize=1;align=center;verticalAlign=middle;points=[];fillColor=none;strokeColor=none;rounded=0;fontColor=#FFFF00;" parent="1" vertex="1">
                    <mxGeometry x="725" y="295" width="70" height="20" as="geometry"/>
                </mxCell>
                <mxCell id="48" value="&lt;font color=&quot;#ffffff&quot;&gt;product.tilte, product.description, product.price&amp;nbsp;&lt;/font&gt;" style="text;html=1;resizable=0;autosize=1;align=center;verticalAlign=middle;points=[];fillColor=none;strokeColor=none;rounded=0;fontColor=#FFFF00;" parent="1" vertex="1">
                    <mxGeometry x="720" y="230" width="260" height="20" as="geometry"/>
                </mxCell>
                <mxCell id="49" value="&amp;lt;Button&amp;gt;Add to cart&amp;lt;/&amp;gt;" style="text;html=1;resizable=0;autosize=1;align=center;verticalAlign=middle;points=[];fillColor=none;strokeColor=none;rounded=0;fontColor=#FFFFFF;" parent="1" vertex="1">
                    <mxGeometry x="710" y="250" width="140" height="20" as="geometry"/>
                </mxCell>
                <mxCell id="50" value="&lt;font color=&quot;#cccc00&quot;&gt;cart: [{product.id, quantity}]&lt;/font&gt;" style="text;html=1;resizable=0;autosize=1;align=center;verticalAlign=middle;points=[];fillColor=none;strokeColor=none;rounded=0;fontColor=#FFFFFF;" parent="1" vertex="1">
                    <mxGeometry x="60" y="90" width="160" height="20" as="geometry"/>
                </mxCell>
                <mxCell id="51" value="mutations -&amp;gt; modifyCartQuantity, canviaQuantitatProductes" style="text;html=1;resizable=0;autosize=1;align=center;verticalAlign=middle;points=[];fillColor=none;strokeColor=none;rounded=0;fontColor=#FFFF00;" parent="1" vertex="1">
                    <mxGeometry x="815" y="260" width="330" height="20" as="geometry"/>
                </mxCell>
                <mxCell id="52" value="&lt;font color=&quot;#cccc00&quot;&gt;modifyCartQuantity&lt;/font&gt;" style="text;html=1;resizable=0;autosize=1;align=center;verticalAlign=middle;points=[];fillColor=none;strokeColor=none;rounded=0;fontColor=#FFFF99;" parent="1" vertex="1">
                    <mxGeometry x="70" y="360" width="120" height="20" as="geometry"/>
                </mxCell>
                <mxCell id="55" style="edgeStyle=none;html=1;entryX=0.493;entryY=1.1;entryDx=0;entryDy=0;entryPerimeter=0;fontColor=#E5CCFF;endArrow=block;endFill=0;strokeColor=#FFFFFF;" parent="1" source="54" target="49" edge="1">
                    <mxGeometry relative="1" as="geometry"/>
                </mxCell>
                <mxCell id="54" value="&lt;font color=&quot;#e5ccff&quot;&gt;En lloc d'un botó, pot ser un component amb input per quantitat&lt;/font&gt;" style="text;html=1;resizable=0;autosize=1;align=center;verticalAlign=middle;points=[];fillColor=none;strokeColor=none;rounded=0;fontColor=#CCCC00;" parent="1" vertex="1">
                    <mxGeometry x="750" y="380" width="350" height="20" as="geometry"/>
                </mxCell>
                <mxCell id="59" value="&lt;font color=&quot;#00cc00&quot;&gt;layouts/default.vue&lt;/font&gt;" style="text;html=1;resizable=0;autosize=1;align=center;verticalAlign=middle;points=[];fillColor=none;strokeColor=none;rounded=0;dashed=1;fontColor=#E5CCFF;" parent="1" vertex="1">
                    <mxGeometry x="440" y="10" width="120" height="20" as="geometry"/>
                </mxCell>
                <mxCell id="60" value="&lt;font color=&quot;#ffffff&quot;&gt;computed&lt;/font&gt;" style="text;html=1;resizable=0;autosize=1;align=center;verticalAlign=middle;points=[];fillColor=none;strokeColor=none;rounded=0;dashed=1;fontColor=#00CC00;" parent="1" vertex="1">
                    <mxGeometry x="340" y="70" width="70" height="20" as="geometry"/>
                </mxCell>
                <mxCell id="61" value="&lt;font color=&quot;#ffff00&quot;&gt;sections&lt;/font&gt;" style="text;html=1;resizable=0;autosize=1;align=center;verticalAlign=middle;points=[];fillColor=none;strokeColor=none;rounded=0;fontColor=#FFFFFF;" parent="1" vertex="1">
                    <mxGeometry x="350" y="90" width="60" height="20" as="geometry"/>
                </mxCell>
                <mxCell id="68" style="edgeStyle=none;html=1;entryX=-0.003;entryY=0.107;entryDx=0;entryDy=0;entryPerimeter=0;fontColor=#FFFF00;endArrow=block;endFill=0;strokeColor=#FFFFFF;" parent="1" source="63" target="9" edge="1">
                    <mxGeometry relative="1" as="geometry"/>
                </mxCell>
                <mxCell id="69" style="edgeStyle=none;html=1;entryX=-0.001;entryY=0.582;entryDx=0;entryDy=0;entryPerimeter=0;endArrow=classic;endFill=1;" parent="1" source="63" target="13" edge="1">
                    <mxGeometry relative="1" as="geometry"/>
                </mxCell>
                <mxCell id="63" value="&lt;font color=&quot;#ff0080&quot;&gt;dataReady&lt;/font&gt;" style="text;html=1;resizable=0;autosize=1;align=center;verticalAlign=middle;points=[];fillColor=none;strokeColor=none;rounded=0;dashed=1;fontColor=#FFFFFF;" parent="1" vertex="1">
                    <mxGeometry x="60" y="130" width="70" height="20" as="geometry"/>
                </mxCell>
                <mxCell id="66" style="edgeStyle=none;html=1;entryX=0.371;entryY=1.05;entryDx=0;entryDy=0;entryPerimeter=0;fontColor=#FFFF00;endArrow=block;endFill=0;strokeColor=#FFFFFF;" parent="1" source="64" target="63" edge="1">
                    <mxGeometry relative="1" as="geometry"/>
                </mxCell>
                <mxCell id="64" value="&lt;font color=&quot;#ff0080&quot;&gt;switchDataReady&lt;/font&gt;" style="text;html=1;resizable=0;autosize=1;align=center;verticalAlign=middle;points=[];fillColor=none;strokeColor=none;rounded=0;dashed=1;fontColor=#FFFFFF;" parent="1" vertex="1">
                    <mxGeometry x="20" y="335" width="110" height="20" as="geometry"/>
                </mxCell>
                <mxCell id="8" value="actions" style="text;html=1;resizable=0;autosize=1;align=center;verticalAlign=middle;points=[];fillColor=none;strokeColor=none;rounded=0;" parent="1" vertex="1">
                    <mxGeometry x="50" y="390" width="50" height="20" as="geometry"/>
                </mxCell>
                <mxCell id="70" value="" style="edgeStyle=none;html=1;fontColor=#FFFF00;endArrow=none;endFill=0;strokeColor=#FFFFFF;" parent="1" source="42" target="8" edge="1">
                    <mxGeometry relative="1" as="geometry">
                        <mxPoint x="92.14285714285734" y="410.0000000000001" as="sourcePoint"/>
                        <mxPoint x="52.85714285714312" y="360" as="targetPoint"/>
                    </mxGeometry>
                </mxCell>
            </root>
        </mxGraphModel>
    </diagram>
</mxfile>